<svg width="138" height="138" viewBox="0 0 138 138" fill="none" xmlns="http://www.w3.org/2000/svg">
<path d="M133.283 56.1973H129.914V42.5859C129.914 39.3906 127.314 36.791 124.119 36.791H115.494C114.884 36.791 114.295 36.8872 113.742 37.0632V36.252C113.742 31.8678 110.175 28.3008 105.791 28.3008H95.0098C90.6256 28.3008 87.0586 31.8678 87.0586 36.252V60.0491H50.9414V36.252C50.9414 31.8678 47.3744 28.3008 42.9902 28.3008H32.209C27.8248 28.3008 24.2578 31.8678 24.2578 36.252V37.0632C23.7047 36.8872 23.1163 36.791 22.5059 36.791H13.8809C10.6856 36.791 8.08594 39.3906 8.08594 42.5859V45.1969C8.08594 46.3133 8.99102 47.2184 10.1074 47.2184C11.2238 47.2184 12.1289 46.3133 12.1289 45.1969V42.5859C12.1289 41.6199 12.9149 40.834 13.8809 40.834H22.5059C23.4719 40.834 24.2578 41.6199 24.2578 42.5859V95.4141C24.2578 96.3801 23.4719 97.166 22.5059 97.166H13.8809C12.9149 97.166 12.1289 96.3801 12.1289 95.4141V53.8467C12.1289 52.7303 11.2238 51.8252 10.1074 51.8252C8.99102 51.8252 8.08594 52.7303 8.08594 53.8467V56.1973H4.7168C2.11609 56.1973 0 58.3134 0 60.9141V77.0859C0 79.6866 2.11609 81.8027 4.7168 81.8027H8.08594V95.4141C8.08594 98.6094 10.6856 101.209 13.8809 101.209H22.5059C23.1163 101.209 23.7047 101.113 24.2578 100.937V101.748C24.2578 106.132 27.8248 109.699 32.209 109.699H42.9902C47.3744 109.699 50.9414 106.132 50.9414 101.748V77.9509H53.8836C55 77.9509 55.9051 77.0458 55.9051 75.9294C55.9051 74.813 55 73.9079 53.8836 73.9079H50.9414V64.0921H87.0586V73.9079H62.6466C61.5302 73.9079 60.6251 74.813 60.6251 75.9294C60.6251 77.0458 61.5302 77.9509 62.6466 77.9509H87.0586V101.748C87.0586 106.132 90.6256 109.699 95.0098 109.699H105.791C110.175 109.699 113.742 106.132 113.742 101.748V100.937C114.295 101.113 114.884 101.209 115.494 101.209H124.119C127.314 101.209 129.914 98.6094 129.914 95.4141V92.6842C129.914 91.5679 129.009 90.6628 127.893 90.6628C126.776 90.6628 125.871 91.5679 125.871 92.6842V95.4141C125.871 96.3801 125.085 97.166 124.119 97.166H115.494C114.528 97.166 113.742 96.3801 113.742 95.4141V42.5859C113.742 41.6199 114.528 40.834 115.494 40.834H124.119C125.085 40.834 125.871 41.6199 125.871 42.5859V83.959C125.871 85.0754 126.776 85.9805 127.893 85.9805C129.009 85.9805 129.914 85.0754 129.914 83.959V81.8027H133.283C135.884 81.8027 138 79.6866 138 77.0859V60.9141C138 58.3134 135.884 56.1973 133.283 56.1973ZM4.7168 77.7598C4.34538 77.7598 4.04297 77.4574 4.04297 77.0859V60.9141C4.04297 60.5426 4.34538 60.2402 4.7168 60.2402H8.08594V77.7598H4.7168ZM46.8984 101.748C46.8984 103.903 45.1451 105.656 42.9902 105.656H32.209C30.0541 105.656 28.3008 103.903 28.3008 101.748V36.252C28.3008 34.0971 30.0541 32.3438 32.209 32.3438H42.9902C45.1451 32.3438 46.8984 34.0971 46.8984 36.252V101.748ZM109.699 101.748C109.699 103.903 107.946 105.656 105.791 105.656H95.0098C92.8549 105.656 91.1016 103.903 91.1016 101.748V36.252C91.1016 34.0971 92.8549 32.3438 95.0098 32.3438H105.791C107.946 32.3438 109.699 34.0971 109.699 36.252V101.748ZM133.957 77.0859C133.957 77.4574 133.655 77.7598 133.283 77.7598H129.914V60.2402H133.283C133.655 60.2402 133.957 60.5426 133.957 60.9141V77.0859Z" fill="#BDBDBD"/>
</svg>
